<?xml version="1.0" standalone="no"?>
<!DOCTYPE svg PUBLIC "-//W3C//DTD SVG 20010904//EN"
 "http://www.w3.org/TR/2001/REC-SVG-20010904/DTD/svg10.dtd">
<svg version="1.0" xmlns="http://www.w3.org/2000/svg"
 width="370.000000pt" height="698.000000pt" viewBox="0 0 370.000000 698.000000"
 preserveAspectRatio="xMidYMid meet">

<g transform="translate(0.000000,698.000000) scale(0.100000,-0.100000)"
fill="#000000" stroke="none">
<path d="M0 3490 l0 -3490 1850 0 1850 0 0 3490 0 3490 -1850 0 -1850 0 0
-3490z m710 3180 l0 -30 60 0 60 0 0 -30 c0 -27 3 -30 30 -30 27 0 30 -3 30
-30 0 -27 3 -30 30 -30 l30 0 0 -150 0 -150 -30 0 c-27 0 -30 -3 -30 -30 0
-27 -3 -30 -30 -30 -27 0 -30 -3 -30 -30 0 -27 -3 -30 -30 -30 -27 0 -30 -3
-30 -30 l0 -30 -150 0 -150 0 0 30 c0 27 -3 30 -30 30 -27 0 -30 3 -30 30 0
27 -3 30 -30 30 l-30 0 0 60 0 60 -30 0 -30 0 0 90 0 90 30 0 c27 0 30 3 30
30 0 27 3 30 30 30 27 0 30 3 30 30 0 27 3 30 30 30 27 0 30 3 30 30 0 27 3
30 30 30 27 0 30 3 30 30 l0 30 90 0 90 0 0 -30z m1200 -720 l0 -30 90 0 90 0
0 -30 0 -30 60 0 60 0 0 -30 c0 -27 3 -30 30 -30 27 0 30 -3 30 -30 0 -27 3
-30 30 -30 l30 0 0 -60 0 -60 30 0 30 0 0 -210 0 -210 -30 0 -30 0 0 -60 0
-60 -30 0 c-27 0 -30 -3 -30 -30 0 -27 -3 -30 -30 -30 -27 0 -30 -3 -30 -30
l0 -30 -60 0 -60 0 0 -30 0 -30 -240 0 -240 0 0 30 0 30 -60 0 -60 0 0 30 c0
27 -3 30 -30 30 l-30 0 0 60 0 60 -30 0 c-27 0 -30 3 -30 30 0 27 -3 30 -30
30 l-30 0 0 210 0 210 30 0 c27 0 30 3 30 30 0 27 3 30 30 30 l30 0 0 60 0 60
30 0 c27 0 30 3 30 30 l0 30 60 0 60 0 0 30 0 30 90 0 90 0 0 30 0 30 60 0 60
0 0 -30z m1080 -1560 l0 -30 60 0 60 0 0 -30 0 -30 60 0 60 0 0 -30 c0 -27 3
-30 30 -30 27 0 30 -3 30 -30 0 -27 3 -30 30 -30 27 0 30 -3 30 -30 0 -27 3
-30 30 -30 27 0 30 -3 30 -30 0 -27 3 -30 30 -30 l30 0 0 -60 0 -60 30 0 30 0
0 -60 0 -60 30 0 30 0 0 -270 0 -270 -30 0 -30 0 0 -60 0 -60 -30 0 -30 0 0
-60 0 -60 -30 0 c-27 0 -30 -3 -30 -30 0 -27 -3 -30 -30 -30 -27 0 -30 -3 -30
-30 0 -27 -3 -30 -30 -30 -27 0 -30 -3 -30 -30 0 -27 -3 -30 -30 -30 -27 0
-30 -3 -30 -30 l0 -30 -60 0 -60 0 0 -30 0 -30 -60 0 -60 0 0 -30 0 -30 -270
0 -270 0 0 30 0 30 -60 0 -60 0 0 30 0 30 -60 0 -60 0 0 30 c0 27 -3 30 -30
30 -27 0 -30 3 -30 30 0 27 -3 30 -30 30 -27 0 -30 3 -30 30 0 27 -3 30 -30
30 -27 0 -30 3 -30 30 0 27 -3 30 -30 30 l-30 0 0 60 0 60 -30 0 -30 0 0 60 0
60 -30 0 -30 0 0 270 0 270 30 0 30 0 0 60 0 60 30 0 30 0 0 60 0 60 30 0 c27
0 30 3 30 30 0 27 3 30 30 30 27 0 30 3 30 30 0 27 3 30 30 30 27 0 30 3 30
30 0 27 3 30 30 30 27 0 30 3 30 30 l0 30 60 0 60 0 0 30 0 30 60 0 60 0 0 30
0 30 270 0 270 0 0 -30z m-840 -2340 l0 -30 60 0 60 0 0 -30 c0 -27 3 -30 30
-30 27 0 30 -3 30 -30 0 -27 3 -30 30 -30 l30 0 0 -60 0 -60 30 0 30 0 0 -240
0 -240 -30 0 c-27 0 -30 -3 -30 -30 0 -27 -3 -30 -30 -30 -27 0 -30 -3 -30
-30 0 -27 -3 -30 -30 -30 -27 0 -30 -3 -30 -30 0 -27 -3 -30 -30 -30 -27 0
-30 -3 -30 -30 l0 -30 -90 0 -90 0 0 -30 0 -30 -120 0 -120 0 0 30 0 30 -60 0
-60 0 0 30 0 30 -60 0 -60 0 0 30 c0 27 -3 30 -30 30 l-30 0 0 60 0 60 -30 0
-30 0 0 60 0 60 -30 0 -30 0 0 120 0 120 30 0 30 0 0 90 0 90 30 0 c27 0 30 3
30 30 0 27 3 30 30 30 27 0 30 3 30 30 0 27 3 30 30 30 27 0 30 3 30 30 0 27
3 30 30 30 27 0 30 3 30 30 l0 30 240 0 240 0 0 -30z m-1320 -1320 c0 -27 3
-30 30 -30 27 0 30 -3 30 -30 0 -27 3 -30 30 -30 l30 0 0 -180 0 -180 -30 0
c-27 0 -30 -3 -30 -30 0 -27 -3 -30 -30 -30 -27 0 -30 -3 -30 -30 l0 -30 -180
0 -180 0 0 30 c0 27 -3 30 -30 30 -27 0 -30 3 -30 30 0 27 -3 30 -30 30 l-30
0 0 60 0 60 -30 0 c-27 0 -30 3 -30 30 0 27 3 30 30 30 l30 0 0 90 0 90 30 0
c27 0 30 3 30 30 0 27 3 30 30 30 27 0 30 3 30 30 l0 30 180 0 180 0 0 -30z"/>
</g>
</svg>
