<?xml version="1.0" encoding="utf-8"?>
<!-- Generator: Adobe Illustrator 19.0.0, SVG Export Plug-In . SVG Version: 6.00 Build 0)  -->
<svg version="1.1" id="Layer_1" xmlns="http://www.w3.org/2000/svg" xmlns:xlink="http://www.w3.org/1999/xlink" x="0px" y="0px"
	 viewBox="0 0 595.3 841.9" style="enable-background:new 0 0 595.3 841.9;" xml:space="preserve">
<style type="text/css">
	.st0{fill:#F29609;}
	.st1{opacity:0.33;fill:#FFFFFF;}
	.st2{opacity:0.37;fill:#FFFFFF;}
	.st3{opacity:0.16;fill:#E6332A;}
	.st4{opacity:0.72;fill:#F9B233;}
	.st5{opacity:0.25;fill:#FFFFFF;}
	.st6{fill:#ECC5DA;}
	.st7{fill:#DD9EBD;}
	.st8{fill-rule:evenodd;clip-rule:evenodd;fill:#DD9EBD;}
	.st9{opacity:0.25;}
	.st10{opacity:0.1;}
	.st11{opacity:0.19;fill:#FFFFFF;}
	.st12{fill:#F6F6F6;}
	.st13{opacity:0.15;}
	.st14{opacity:5.000000e-02;}
	.st15{fill:#FFFFFF;}
	.st16{fill:#333333;}
</style>
<g>
	<g>
		<path class="st0" d="M427.2,336.5c0,0-0.1,0-0.1-0.1l3.2-38.7c0-11.8-59.1-22.6-133.6-22.6c-74.5,0-133.1,9.9-133.1,21.8l2.7,39.5
			c0,0-0.1,0.1-0.1,0.1c-3.9,4.1-4.5,26.5,3.1,43c0-0.2,22.8,298.1,22.8,298.1c0,9.2,46.8,18.5,104.6,18.5
			c57.7,0,104.6-9.3,104.6-18.5L424,380c0-0.3,0.1-0.8,0.1-0.6C435.2,360.9,430.3,338.7,427.2,336.5z"/>
		<path class="st1" d="M399.3,659.4c0,9.2-46.1,16.6-103.1,16.6c-56.9,0-103-7.4-103-16.6s46.1-16.6,103-16.6
			C353.2,642.8,399.3,650.2,399.3,659.4z"/>
		<path class="st2" d="M428,296.1c0,11.8-58.2,21.4-131.1,21.4c-72.9,0-130.4-9.6-130.4-21.4c0-11.8,57.5-21.4,130.4-21.4
			C369.8,274.6,428,284.2,428,296.1z"/>
		<path class="st3" d="M340.3,275.7c0,0,90.7,4,89.8,18.7c-0.9,14.7-2.8,34-2.8,34l0.2-26.8c0,0,2.5,17.6-140.8,18.7
			c0,0-2.2-1.5,0.7-1.5c2.9,0,140.6-1.8,140.6-22.7C428,281.2,340.3,275.7,340.3,275.7z"/>
		<path class="st4" d="M413.5,509.6c0,0,0,0.3-0.1,0.8c-0.9,12.3-11,154.1-12.2,167C400,691,328.5,695.8,292,695.8
			c-3.9,0-7.1-2.2,0.2-2.2c28.2,0,106.3-5.6,106.3-19.1c0-15.9-101.7-17.4-137.7-14.2c-1.7,0-2.9-1-0.5-1.2
			c2.5-0.3,17.8-3.9,53.8-4.5c48.6-0.8,58.4-260.7,60.1-270.5c0,0-29.4,3.6-60.5,3.6c-2.7,0-5.3-2.3,0.1-2.3
			c5.5,0,57.4-3.9,60.6-4.9c0,0,4-4.6,5.4-17.7c1.4-13.1-2.7-18.1-3.9-20.3c-19.9,5.8-65.5,5.2-68.9,4.2c-3.4-1,68.9-3.9,69.2-10
			c0.3-6.1,1.4-18.7,1.4-18.7c0-1.2-10.7-0.9-16.4-0.6c-5.8,0.3-0.4-0.4,13.7-1.9c14.1-1.4,51.2-5.5,54.9-17.7c3.8-12.3,0,0,0,0
			l-2.9,38.7c0,0,10.9,17.1-3,43L413.5,509.6z"/>
		<path class="st5" d="M166.4,335.2c2.8,1.1,51.9,11.5,74.6,12.3c38.7,1.4,1.7,1.6-0.2,1.5c-35.4-1.5-68.3-7.9-72.2-8.8
			C164.8,339.3,164.9,337.2,166.4,335.2z"/>
		<path class="st5" d="M166.4,373.7c2.8,1.1,53.8,12.4,76.5,13.4c38.7,1.6,1.7,1.6-0.2,1.5c-35.4-1.7-68.2-8.3-72.1-9.2
			C166.7,378.4,164.8,375.7,166.4,373.7z"/>
		<g>
			<path class="st6" d="M169.2,305.5c-2.6,9.5,6.6,27.4,6.6,27.4c-6.2,5.1-9.9,19.8-8,29.6c1.8,9.9,8.8,18.7,8.8,18.7
				c-4.4,4.8-1.8,15.4,2.2,18.3c-3.3,11.7,5.9,24.5,15.7,24.9c-3.3,5.9,4,13.9,10.2,11c-1.1,17.9,15.7,23.8,27.8,19.4
				c0.7,13.2,18.3,15.7,27.1,12.8c15.4,8.4,34.4-5.1,37.7-9.5c3.3-4.4,7-11,7-11l4,6.2c13.5,17.9,38.4,12.4,41.3,6.2
				c11.3,0,20.1-13.5,19.4-20.9c15.4,11,29.3-10.6,29.3-17.9c7,0.4,11-8.8,7-14.6c11.3-5.9,13.2-22,9.1-32.6
				c5.9-1.5,11.7-6.9,11.7-17.6c0-10.6-5.5-21.2-5.5-26.7c5.9-7.3,4.8-34.8,4.8-34.8c2.6-2.2,3.3-20.9,3.5-23.8
				c0.3-2.9,2.5-2.3,2.5-2.3c0.6,17.1,20.6,9.6,22.1,5.2c16.8-5.1,11.3-22.3,5.9-28.9c4.8-3.3,5.5-9.5-1.1-13.5
				c6.6-11-3.7-26.3-17.9-27.7c2.8-25.2-21.5-34.3-32.1-29.7c1.3-11.8-11.9-15.2-19.4-8.4c-3.5-25.4-34.8-22.6-44.8-9.6
				c-25.9-26.2-44.3-2.7-47.4,4.5c-3.1,7.2-4.3,11-4.3,11l-3.8-8.9c-9.1-20.3-38.8-24-52.1-11.6c0,0-19.6-19.5-37.2-4.6
				c-25.8-3.2-41.5,7.1-39.5,33.2c-16.8,6.6-18.5,13.5-17,22.4c-15.6,12.5-13.3,31.9-1.8,43c-7.8,5.9-11.4,19.9,1.5,28.5
				c-4.5,9.4,18.2,16.8,21.5,1.5c0,0,0-9.1,0.7-11.7c0.7-2.6,1.9,0.6,2,3.1c0,0-0.2,18.9,3.8,22.9
				C167.4,291.6,167.4,300.4,169.2,305.5z"/>
			<g>
				<path class="st7" d="M214.3,143.1c11.1,0,20.7,9.4,20.8,9.5l1.7,1.7l1.8-1.7c4.4-4.1,11.2-6.4,18.6-6.4c10,0,23.6,4.5,29.3,17.2
					l3.8,8.9l2.7,6.4l2.1-6.6c0,0,1.2-3.8,4.2-10.7c1.4-3.2,9-15,21.5-15c7,0,14.3,3.8,21.7,11.3l2,2.1l1.8-2.3
					c4-5.2,12.1-8.7,20.2-8.7c5.3,0,17.9,1.7,20,17.1l0.7,4.8l3.6-3.3c2-1.8,4.6-2.8,7.3-2.8c2.5,0,4.7,0.9,6.1,2.5
					c1.4,1.6,2,3.9,1.8,6.6l-0.5,4.3l4-1.7c1.4-0.6,3.2-0.9,5.1-0.9c5.1,0,12.4,2.1,17.7,8.1c4.6,5.1,6.6,12,5.7,19.9l-0.3,2.6
					l2.6,0.2c6.6,0.6,12.8,4.9,15.9,10.8c2.3,4.5,2.3,9.2,0.1,13l-1.3,2.2l2.2,1.3c2.3,1.4,3.5,3.1,3.6,4.9c0,1.6-0.9,3.2-2.6,4.4
					l-2.3,1.6l1.8,2.1c2.9,3.4,6.1,11,4.3,16.9c-1.1,3.8-4.1,6.4-9,7.9l-1.2,0.3l-0.4,1.3c-0.5,1.1-5,3.8-9.8,3.8
					c-4.8,0-7.2-2.7-7.4-8.2l-0.1-1.8l-1.8-0.5c-0.2,0-0.6-0.2-1.2-0.2c-1.9,0-4.2,1.2-4.5,4.7c0,0.5-0.1,1.3-0.2,2.3
					c-0.9,14.4-1.9,18.8-2.6,19.9l-0.8,0.7l0,1.2c0.4,10.2-0.4,28.3-4.2,33.1l-0.6,0.7v0.9c0,2.7,1,6,2.2,9.9
					c1.5,5.1,3.3,11,3.3,16.8c0,6.1-2.6,13.3-9.8,15.1l-2.8,0.7l1,2.7c3.9,10.2,1.6,24.5-7.9,29.4l-2.6,1.3l1.6,2.4
					c1.4,2.1,1.5,5,0.2,7.5c-0.5,1-2,3.2-4.7,3.2c-0.1,0-0.2,0-0.3,0l-2.7-0.1v2.7c0,4.5-8.1,18.4-17.9,18.4c-2.4,0-4.9-0.9-7.3-2.6
					l-4.6-3.3l0.6,5.6c0.3,2.8-1.5,7.9-5.4,12.2c-2,2.2-6.1,5.9-11.5,5.9h-1.6l-0.7,1.5c-0.8,1.6-6.1,4.5-14,4.5
					c-5.4,0-15.6-1.4-22.9-11.1l-4-6.1l-2.3-3.6l-2.1,3.7c0,0.1-3.6,6.5-6.8,10.7c-2.3,3.1-13.4,11.2-24.8,11.2
					c-3.5,0-6.8-0.8-9.7-2.4l-1-0.5l-1.1,0.4c-1.9,0.6-4.2,1-6.7,1c-6.1,0-16.5-2.4-17-11.5l-0.2-3.4l-3.2,1.2
					c-2.2,0.8-4.7,1.2-7.2,1.2c-5.3,0-10.1-1.9-13.2-5.2c-3-3.2-4.4-7.5-4.1-12.9l0.3-4.3l-3.9,1.8c-0.5,0.3-1.1,0.4-1.7,0.4
					c-1.8,0-3.8-1.3-5-3.2c-0.4-0.8-1.4-2.7-0.3-4.6l2.1-3.6l-4.2-0.2c-3.6-0.1-7.5-2.5-10.3-6.3c-3.4-4.6-4.5-10.3-3.1-15.3
					l0.5-1.7l-1.4-1c-1.4-1-3-4.1-3.4-7.8c-0.3-2.9,0.3-5.3,1.5-6.7l1.5-1.6l-1.3-1.7c-0.1-0.1-6.6-8.4-8.3-17.5
					c-1.7-9.3,1.8-22.8,7.2-27.2l1.6-1.3l-0.9-1.8c-2.4-4.7-8.3-18.6-6.4-25.6l0.2-0.8l-0.3-0.8c-1.7-4.7-1.3-12.1,0.6-13.6l2.3-1.8
					l-2-2c-2-2-3.2-12.5-3.1-21.1l0-0.1l0-0.1c-0.1-1.5-0.7-6.4-3.9-6.4c-0.9,0-2.4,0.4-3.1,2.8c-0.8,2.6-0.8,10-0.8,12.1
					c-1.3,5.7-5.7,6.6-8.3,6.6c-3.4,0-6.9-1.5-8.2-3.7c-0.6-1-0.7-1.9-0.2-3l1-2l-1.9-1.2c-4.7-3.1-7.3-7.2-7.4-11.9
					c-0.1-4.7,2.2-9.5,6-12.4l2.4-1.8l-2.1-2.1c-5.7-5.5-8.7-13-8.4-20.5c0.3-7.2,3.8-13.7,10.1-18.7l1.2-0.9l-0.2-1.5
					c-1.2-7.2-0.8-13.2,15.4-19.6l1.8-0.7l-0.1-1.9c-0.8-10.3,1.2-18.1,6-23.3c4.7-5.1,12.2-7.7,22.2-7.7c2.6,0,5.4,0.2,8.4,0.5
					l1.1,0.1l0.9-0.7C205.3,144.8,209.6,143.1,214.3,143.1 M214.3,140.6c-4.7,0-9.8,1.5-14.6,5.6c-3-0.4-5.9-0.6-8.7-0.6
					c-20.6,0-32.6,10.7-30.8,33.8c-16.8,6.6-18.5,13.5-17,22.4c-15.6,12.5-13.3,31.9-1.8,43c-7.8,5.9-11.4,19.9,1.5,28.5
					c-2.6,5.5,4,10.3,10.7,10.3c4.7,0,9.4-2.4,10.8-8.8c0,0,0-9.1,0.7-11.7c0.2-0.7,0.4-0.9,0.6-0.9c0.6,0,1.3,2.2,1.4,4
					c0,0-0.2,18.9,3.8,22.9c-3.3,2.6-3.3,11.3-1.5,16.5c-2.6,9.5,6.6,27.4,6.6,27.4c-6.2,5.1-9.9,19.8-8.1,29.6
					c1.8,9.9,8.8,18.7,8.8,18.7c-4.4,4.8-1.8,15.4,2.2,18.3c-3.3,11.7,5.8,24.5,15.7,24.9c-2.8,5,2.1,11.6,7.5,11.6
					c0.9,0,1.9-0.2,2.8-0.6c-0.9,14.2,9.4,20.8,19.8,20.8c2.8,0,5.5-0.5,8-1.4c0.6,10,10.8,13.9,19.6,13.9c2.8,0,5.4-0.4,7.5-1.1
					c3.5,1.9,7.2,2.7,10.9,2.7c12.4,0,24.3-8.8,26.8-12.2c3.3-4.4,7-11,7-11l4,6.2c6.9,9.1,16.7,12.2,25,12.2
					c8.1,0,14.9-2.9,16.3-5.9c11.3,0,20.1-13.5,19.4-20.9c3,2.2,6,3.1,8.8,3.1c11.5,0,20.5-15.1,20.5-21c0.1,0,0.3,0,0.4,0
					c6.7,0,10.5-8.9,6.6-14.7c11.3-5.9,13.2-22,9.1-32.6c5.9-1.5,11.7-6.9,11.7-17.6c0-10.6-5.5-21.2-5.5-26.7
					c5.9-7.3,4.8-34.8,4.8-34.8c2.6-2.2,3.3-20.9,3.5-23.8c0.2-2,1.3-2.4,2-2.4c0.3,0,0.5,0.1,0.5,0.1c0.3,8.1,5,10.7,9.9,10.7
					c5.5,0,11.4-3.2,12.2-5.5c16.8-5.1,11.3-22.3,5.9-28.9c4.8-3.3,5.5-9.5-1.1-13.5c6.6-11-3.7-26.3-17.9-27.7
					c2.3-21.1-14.2-30.9-26-30.9c-2.3,0-4.4,0.4-6.1,1.1c0.8-7.8-4.5-11.9-10.4-11.9c-3.1,0-6.4,1.1-9,3.5
					c-1.9-13.9-12.1-19.3-22.6-19.3c-8.7,0-17.7,3.8-22.2,9.7c-8.8-8.9-16.8-12.1-23.6-12.1c-13.1,0-21.8,11.8-23.8,16.6
					c-3.1,7.2-4.3,11-4.3,11l-3.8-8.9c-5.6-12.5-19.1-18.7-31.7-18.7c-7.8,0-15.3,2.4-20.4,7.1C236.9,150.8,226.6,140.6,214.3,140.6
					L214.3,140.6z"/>
			</g>
			<g>
				<path class="st7" d="M191,424.3l6.3-0.1l12.9,7.4l6.4,3.5l13.8-2.3l1.2,5.2l6.5,6.2l1.6,6.1l1.3,4.6l5.7,5.1l8.3,6.8l-4.7-7.4
					l-5.6-7.6l-1.2-3.8l11.5-0.9l-14.9-5.3l-5.9-9.5v-7.1l6.5,3l1.1-3l-6.5-4.4l-3.8-8.6v-5.3l6.5-2h-13l-12-7.3l-3.8-8.3l-2.1-7.3
					v-4.7l13.9-2l-15.6-3.5l-20.5-2l16.8,7.4l-0.9,7.4l4.5,10l1.6,2.3l-4.3-2.3L198,391l-5.6-8.5l-8.3-4.4l-5.8-5.6l-2.7-7.3
					l0.9-5.8l6.5-5.3l3.9,0.9l13,0.9l9.2-4.7l8.3-5.8l6.4-9.7l-3.5-2.7l-4.7,6.1l-5.6,6.4l-8.3,3.9l-9.4,1.8l-6.4-2.7l-5.8-3.5
					l-2.6,1.7l1.8,3.5l-3.9,3.9l-2.5,3.3l-2.2-2.4l-2.7-6.5v-0.9c-0.7,3.1-1.1,6.4-1.1,9.5l4.3,4.7l-0.5,1.4l0.9,6.5l3.8,7.4v3
					c0.5,0.6,0.8,1,0.8,1c-0.2,0.3-0.5,0.6-0.7,0.9l7.4,1.4l5.8,1.8l3.6,6.4l5.6,6.5l0.9,6.5l3.8,9.4l8.6,8.2l2.6-2.9l-5.8-4.5
					l-4.4-8.2v-6.4l6.6,1.4l1.5,2.1l10.3,4.5l3.8,2l2.9,7.4l2.7,3.5l-1.8,8.5l0.1,0.3l-2.8-0.3h-11.2l-9.1-5.6l-20.2-3"/>
				<polygon class="st7" points="276.4,391.8 280.2,384.6 280.8,379.9 288.5,368.6 282.7,374.5 273.6,379 262.4,379.9 273.6,381.9 
					274.4,387.4 271.7,395.5 				"/>
				<path class="st7" d="M364.1,172.2c6.4,1.2,14.7,14,14.7,14l16.8,1.8l11.4,4.7l-2.1-6.5l-13-2.6l-12-2.7l-3-5
					C370.7,171.6,364.1,172.2,364.1,172.2z M134.6,211.5c4.3-5.1,14.5-7.2,19.6-3.8l16.8,9.1l6.8-13.8l9.2-10.2l11.1-8.2l13.3-3.6
					h12l-7.6,10.6h-7.6l-12.9,3.9l-7.6,7.4l-5.5,9.5l-1.6,7.6l-1.9,12.2l11.1-10.8l11.1-4.7h10.9l5.8,4.7l-3.6,10v6.4l4.7,7.6
					l6.4,2.1l-5.5-8.6l-0.9-8.2l3.5-7.4l6.7-5.5l11.4-5.3l15.8-6.8l11.8-6.7l11.5-2.4l-11.5,0.8l-12.7,4.4l-14.2,5.9l-19.7,8.2
					l-8-2.9l-9.2-1.8l-8.5,1.8l-10.5,4.5l1.2-5l6.4-7.6l12.1-6.5l11.2-1.8l3.8,9.1l7.4,2.7l-3.6-3.5l-2.3-9.4l3.9-7.4l8.6-9.2
					l13-7.3l12-1.8l18.8,2.9l9.4,5.5l2.7,5.6l-1.1,9.1l-5.8,2.7l6.8,2.9l3.6,6.5v6.2l-4.4,11.5l-1.3,0.7l-1.8,5.5l-4.8-0.8h-8.2
					l-10.2,2.7l-9.2,8.2l-17,12.9l-10.3,5.6l-17.7-2.9l-12.9-0.8l-1.1-12.1l-2.7,12.1l-9.2,2.6l-7.6,6.5l-4.5-4.6l1.7,11.1l-2.7,8.2
					l-1.7,1.3c0.2,1.4,0.4,2.9,0.7,4.2l4.8-3.5l1.8-8.3l5.6-7.3l11.2-5.6l15.6-0.9l17.9,3.5l-16.8,10.3l20-7.3l15.3-13.9l15.2-11.1
					l7.3-4.9h10.5l7.3,1.2l4.8,4.7l4.6,14.3l-1.9,11.3l-3.8,12l-8.2,11.1l-15.8,14.7l13.9-9.2l6.2-1.7l6.7,5.5l3.6,12l1.1,13.8
					l-4.7,12.9l-8.2,9.1l-12.1,5.8l12.7-2.7l8.5-6.4l3.8,2.9l1.8,8.2V366l-6.5,9.2l3.6,2.9l4.8,7.3l0.8,10.2l-1.8,8.3l-17,9.2
					l9.5-2.7l10.2-6.5l3.8-8.3l1.1-12l-2.9-11.1l-1.1-7.3l2.1-8.2l5.5-3.8l10.3,0.9l13.2-1.8L347,344l-14.5,4.6l-12.1,0.9l-11.4-2.7
					l-5.5-5.5l-2.1-7.3l1.1-8.5l1.8-5.3l4.7-3.8l5.4-2l8.6,2l9.4-0.9l8.2-2h10.3l8.2,4.7l5.8,5.3l2.9,10.5l-0.9,11.5l-4.7,8.6
					l-13,11.1l13.9-7.4l3.8,4.5l1.8,6.2v5.9l-4.8,9.1l-9.2,8.2l-10.3,9.4l9.6-3.6l2.9,3.6l3.3,7.3v8.5l-5.5,8.2l-9.2,5.3l-10.1,1.2
					l5.5,4.5l-1.8,3.8l-3.6,2.7l-7.4,2.7l-3.9,1.7l-0.8,3.6l1.7,3.9l1.1-0.9l2.7-4.7l10.3-2.7l3.6-6.4l2.9,4.2v6.5
					c0,0,0.3-0.6-1.1,3.8c-4.6,14.8-30.2,4.1-30.2,4.1l5.7,4c4.6,2.1,21.5,6.5,29.5-3.2c8.7-0.2,14.7-8.7,14.7-8.7l2.4-2.5
					c1.9-3.4,2.9-6.9,2.7-9.5c1.3,1,2.7,1.7,4,2.2l2.2-4.7l15.9-8l7.4-9.2l3.9-10.5l9.2-8l4.3-10.9c0.8-5.5,0.2-11.2-1.6-15.9
					c5.9-1.5,11.7-6.9,11.7-17.6c0-7.5-2.7-15-4.3-20.7l-1.7,3.3l-6.4,1.8l-20.8-2.7l15.9,4.5l8.2,1.8l2.1,2.7l4.5-1.2v6.8l-0.8,10
					l-3.8,8.2l-8.6,2.7l-9-2.7l-0.2-2l-5.5-7l-8-3.8l9.9,8.2l2.1,12.1l-3,10.3l-6.4,7.1h-10.3l-6.4,5.6l-2.1,4.4l7.4-3.5l8.8,1.1
					l2.6,4.5l-3.8,9.2l-8.3,6.5l9.9-5.6l5.6-6.7l-2.6,9.5l-9.2,8l-9.2,2.9l-9.4,13.8l-12.1,6.4l-3,1.2l1.1-1.2v-10l-2.9-5.6l7.6-4.5
					l7.4-8.2l3.6-7.6v-10.3l-2.7-10.9l8.5-6.2l4.4-9.4l1.1-11.1l-2.6-8.5l-5.8-4.4l2.9-6.5l10.2,4.7L370.6,343l0.7-14.2l8.5,2.4
					h10.3l7.3-3.8l8.5-3.8l9.2-4.4l8.3-0.9l0.6,0.3c0.3-2.2,0.6-4.4,0.8-6.7l-0.3-0.1l-11.1,1.8l-12.4,6.7l2-15l-4.7,8.3l-4.9,6.7
					l-5.6,3.3l-9.1,2l-9.9-2.2l-1.2-2.5l-7.7-7.3l-9.1-2.7h-11.1l-16.1,2l-13.8-3.9l-6.5-7.4l-4.7-10l-1.1-8.3l1.8-8.3l23.5,9.1
					l-14.1-7.6l-8.5-5.1l-5.5-10.9l-1.8-12.8v-6.6l-1.1-8.3l1.8-4.5l3.8-2.9l8.6,1.8l9.2,5.6l4.7,7.4l6.2,1.7l8.6,2l4.7,5.5l3.3,6.5
					l4.7,9.1l9.5,10.2l8.5,6.4l10.9,2l10.8,0.8l8.9,2.1l7.6,1.7l6.2-1.7l10.4-3.8h7.1c0.1-1.3,0.2-2.6,0.3-3.8h-1.7l-10.3,1.1
					l-10.3,3.6l-10.3-0.9l-18.8-5.9l6.5-3.3l3-6.2l-5.6,4.4l-7.3,3l-8.6-2l-7.4-5.5l-6.5-13l-7.7-10.2l-7.3-4.7l-12.1-3.6l-8.2-9.2
					l-9.2-5.5l-10.3-1l0.7-1l0.9-8.2v-9.2l-0.9-1.7l5.6-5.9l7.6-3.6l11.1-1.8l11.4,1.2l10,4.2l6.7,6.7l2.7-3.6l-7.6-7.3l5.5-1.2
					l10.3,1.8l11.4,7.4l4.7,13v-9.2l4.7-2.7l9.4,1.8l8.2,3.6l9.2,6.5l2.7,7.4v7.3h3.2l1.7-6.5l3.8,2l8.2,7.4l6.4,10.9l2.1,9.2
					l-2.6-4.5l-6.5-5.8l-8.5-4.4l-11.1-0.9l-8.6-2.7l1.8,2.7l5.8,2.7l6.5,2l7.4,1.7l6.7,3.8l4.7,6.4l0.4,3.1l-4.5-1.1h-12.9
					l-7.3-2.9l-7.4-7.3l-7.7-5.6l2.9-9.2l-3.8-5.5l-4.5,12.9h-10.3l-13-16.7l-10.3-6.4l-12.9-1.1l-10.5-5.5l-9.1-0.9l10.1,2.7
					l6.7,4.7l-8.6,6.4l16.8-2l8.5,1.1l8.3,6.5l6.5,9.1l2,4.5l-2.9,15.8l4.7,1.1l2.6-13.9l10.5-1.1l10.1,5.8l4.5,6.4l4.7,7.4
					l2.7,11.1l3.9-1.1l-2-12.9l11.2,1.8l9.4,1.1l3.3,4.5l3.2,7.4v5.5l-1.7,2.5c1.7,1.3,3.8,1.8,5.9,1.9l0.5-1.6v-7.1l-1.8-10.2
					l-0.8-1.2l2.6-4.5l0.8-5.5l-0.8-10.2l-4.7-9.1l-7.4-10.3l-6.5-3.6l-6.5-1.8l-7.6-9.1l-10.3-5.9l-13.9-3.5H375l-3.6-5.6l-7.6-5.3
					l-12.9-0.9l-8.5,2.6l-10-2.6h-16.1l-12.9,3.6l-8.9,8l-1.4-2.5l2.9-5.5v-1l4.4-4.5l19.9-7.6l6.2-2.7l6.7-3.5c0,0,5.9-3.2,7.6-6.7
					c0,0,0.6,7.1,8.2,12.1c0,0-13.7-19.7,12.5-23.8c17.9-2.8,23.5,5.8,24.2,8.9c0,0-3.4-12.1-24.6-12.1c-12.3,0-18.4,9.3-18.4,9.3
					s-7.1-8.6-15.8-10.6c0,0,23,13-4.8,22.9l-9.4,3.5l-13.2,3.9l-4.2,3.6l-1.4-3.6l2.1-5.8l0.1-0.8l7.3-4.7l16.8-3.8l-15,1.1
					l-8.8,0.9l-0.2-1.5c-2.9,6.8-4,10.3-4,10.3l-2.4-5.5l-0.4,3.1l-2.1,2.7l-16.8-3.5l-12-1.8l-12,0.6l-15.1,6.7l12-10.9l9.7-4.8
					l-9.7,0.9l-9.2,5.6l-6.1,5.5l-4.2,4.5l-12.1,1.2l-11.8,3.3l-12.3,6.4c0,0-7.8-31.7-9.4,9.4l-7.4,11.1l-1.5,2.9c0,0-8.5-6-14-3
					c0,0-0.6-4.2-12.8-2.3C140.4,203.6,134.6,211.5,134.6,211.5z M400.2,390.1l2.1-10.2l-0.1-0.9h2.7l10.6-0.9l-2,7.2l-6.5,15.8
					l-9.5,5.6h-2.7l-1.2-7.4L400.2,390.1z"/>
				<polygon class="st7" points="349.7,379 339.9,385.4 328.5,384.6 320.3,380.9 314.4,375.2 322.1,386.5 316.4,394.6 326.5,387.4 
					337.7,388.4 345.3,384.6 				"/>
				<path class="st7" d="M262.4,255.5l-7.4,15.6l-9.4,9.1l-11.4,7.4l-12.1,2.7l-10.3-0.6h-10.9l-6.7,1.7l-6.5,6.4l-3.6,2l-10.6,2.7
					l-4.6,2.4c0.1,0.2,0.1,0.4,0.2,0.6c-0.4,1.5-0.5,3.3-0.4,5.1l7-3.6l9.4-1.8l6.5-5.5l8.5-7.4h8.2l11.4,2.9l11.4,0.8l3.1-1.5
					l0.3,3.3l-0.6,7.4l-3.9,7.6l-7.6-1.1l-9.1,1.8l-12.1,8.5l-11.1,6.2l-9.5,1.2l-6,0.6c0.8,1.8,1.3,2.9,1.3,2.9
					c-0.9,0.8-1.8,1.8-2.6,2.9h7.3l9.5-2.7l11.1-3.6l12.1-8.6l10.3-4.4h9.1l4.8,5.6v5.3l-3.6,9.1l-2.1,7.6v7.3l3.8,7.6l5.5,8
					l4.9,6.4l-0.9,6.7l-17.7,6.5l1.8,4.5l13.9-6.4l4.7,7.1l2.9,10.3v11.1l-2,12.9l6.7,2.7l5.6,6.4l3.5,11.2v7.4l3.2-5.8l-1.4-8
					l-3.5-9.5l-7.4-6.2v-6.4l0.9-13l-0.9-12l-5.6-10.9v-5.6l-1.1-7.7l-6.5-7l-4.6-12.1v-7.3l3.5-11.1l2.7-6.5l-1.7-6.4l-5.6-5.5
					l1.8-9.5V296l-0.4-3.2l5.1-2.4l8.3-6.5l8.5-12.7l4.5-15.6H262.4z"/>
				<path class="st7" d="M282.9,154.2c-0.4-0.4-0.8-0.8-1.2-1.2l-1.6-0.5L282.9,154.2z"/>
				<polygon class="st7" points="326.5,418.9 331.2,416.9 347,415.9 329.4,414.2 330.5,402.1 323.8,414.2 320.3,422.4 320.3,428.7 
					321.1,432.2 323.8,435.1 322.1,428.7 323,423.4 				"/>
				<polygon class="st7" points="242.7,185.2 235.3,191.6 246.7,189.3 256.8,189.3 267.7,189.9 274.4,191.6 276.4,187.4 
					264.1,184.6 253.2,183.7 				"/>
				<path class="st7" d="M302.4,450L302.4,450L302.4,450c1-1.7,1.6-2.8,1.6-2.8l2.5,5.5l8.2,7.4l-3.9-7l-9.5-11.3l2.1-8.3l-2.1-6.5
					l7.6,3.5l-7.6-10.9l-1.8-6.4v-3.8l-5.6,9.5l-7.1,6.2l-8.6,6.5l15.8-5.6l2.1,4.4v8.5l0.2,8.5l-4.1,8.9l-9.7,10.7l15.2-9.8v0
					C299.5,454.9,301.2,452,302.4,450z"/>
				<polygon class="st7" points="259.5,322.1 274.4,319.2 272.6,313.6 249.4,323.6 				"/>
			</g>
			<path class="st7" d="M425,294.5c-0.2-2.4-0.5,16.2-5.8,19c-5.3,2.8,3.9,10.1-2,14.7c0,0,1.6,8.3,2.7,12.6
				c1.1,4.4,3.6,0.2,3.6,0.2l-3.7-11.6C419.6,329.5,427.2,321.1,425,294.5z"/>
			<path class="st7" d="M425.3,263.6c0,0,2.5,14.6-1.2,22.3c-3.7,7.8-12.6,12.2-12.6,12.2s18.1-1.9,17.7-16.7
				c-0.4-14.8-0.4-12-0.4-12l2.3-0.8L425.3,263.6z"/>
			<path class="st8" d="M147.7,185.5c5.3-2.6,15.8-6.1,23.2-0.4c0,0,2.2-18,18.8-20.6c16.6-2.6,15.5,9.9,15.5,9.9s3.1-6.3-1-11.6
				c0,0,7.9-9.7,18.8-4c0,0,5.7-11.4,13.1-7c0,0-7.9-10.1-22.3-10.9c0,0,10.3,2.4,14.2,7.8c0,0-4.6,2.2-5.4,7c0,0-9.1-8.6-21.7,4.9
				c0,0-22.4-8.7-32.4,17.4c0,0-1.6-0.1-5.5,0.6c0,0-2.6-12,1.6-21.2c0,0-5.9,3.3-5,21.4C159.5,178.7,149.8,183.6,147.7,185.5z"/>
			<path class="st7" d="M142.5,273.2c0.6-2.6,6.4-3.6,6.4-3.6s-2.1-10.6,8.3-16.8l-0.6-1.3c0,0-10,6.2-10,15.9c0,0-4.9,0.9-7.4,3.6
				L142.5,273.2z"/>
			<path class="st7" d="M141,244.7c3.4-1.8,11.1-2.5,15-0.2c0,0,4.9-19.1,23.5-12.2l1.7-5.8c0,0-20.7-4.1-26.8,14.1
				c0,0-8.4-1.6-14.3,3.4L141,244.7z"/>
			<path class="st8" d="M407.7,192.8c5.1,2.3,10.6,5.3,10.6,9.5v3.4l2.6,1.2v-4.8c0,0,9.3-6.5,19,2l0.4-2.8c0,0-9.7-7.3-18.4-1.4
				c0,0-2.2-9.5-17.4-13.7C391.5,182.5,407.7,192.8,407.7,192.8z"/>
			<path class="st8" d="M459.1,244.9c0,0-5.6-4.9-8.5-6.5c0,0,7.3,2.4,9.7,5.2L459.1,244.9z"/>
			<path class="st8" d="M448.8,277.2c3.3-2.6,2.2-4.9,2.2-4.9s-7.8-6.4-4.4-15.8l0.3,0c0,0-0.7,10.5,7.2,12.6
				c7.9,2.1,10.1-6.1,10.1-7.7c0,0,0.2,8.9-11.1,12.2C453.2,273.6,451.3,276.6,448.8,277.2z"/>
			<path class="st8" d="M138.9,246.5c-0.8,0.6-7.5,16,6.4,24.2c0,0-3.3,7.7,6,9.4c7.7,1.4,8.7-2.4,9.1-7.5c1-12.4,4.6-14.4,4.6-14.4
				s-5.2-8.6,0.4-12.5l0.6,0.4c0,0-4.3,6.2,0.5,9.9l2.5-1.9l0.8,0.6c0,0-2.7,6.2-4.5,7.5c0,0-1.3,1.4-1.3,7.3
				c0,6-0.2,14.4-11.5,14.2c-11.3-0.2-11.3-8.3-10.2-10.5C142.2,273.3,124.7,262.5,138.9,246.5z"/>
			<path class="st7" d="M170.4,320.1h0.5c0,0,4.2,9.6,9.5,10.1c5.2,0.5,3.2,3.7,3.2,3.7l-3.4,1.9c0,0-10.7,6-11.1,17.1l-2-1.2
				c0,0,0.9-13.1,8.4-18.8C175.6,333,171.3,323.8,170.4,320.1z"/>
			<path class="st7" d="M174,302.7c-2.3-1.1-4.1-6.2-2.9-9.9c1.1-3.6,5.1-6.5,11-5l0.6-0.3c0,0-1.7-1.6-4.3-2.2c0,0,3.2-3.7,3.7-5.1
				l-1-0.3c0,0-5.6,6-8.1,6c-2.5,0-4.5-1-4.5-1s0.5,3.2,1.7,4c0,0-5.9,8.8,0,17.4L174,302.7z"/>
			<path class="st7" d="M175.6,307.1c0,0-7.1,0-5.7,11c0,0-2.6-6.8-0.8-12.5c0,0-2.3-5.1-1.3-9.7
				C167.7,295.8,168.4,303.9,175.6,307.1z"/>
			<path class="st7" d="M434.5,200.8c2.1,0.8,6,5.4,1,11.5l0.3,1c0,0,4.4-3.9,5.1-7c0,0,11.6,1.5,14.9,11.3
				c3.3,9.8,0.5,13.1,0.5,13.1s-6.4-1.8-8.8,1.8c0,0,5.7-2.5,9.2,0c3.4,2.5,5.4,7.7,2.3,10.5l0.2,2.1c0,0,3.7-2.8,3.7-7.5
				c0-4.7-4.7-6.2-4.7-6.2s4.4-6.5,0.7-14.9c-3.8-8.3-15.7-13.7-18.7-12.9c0,0,1.1-10.8-3.1-17.5c0,0,2.8,8.7,0.8,14.6
				C437.3,201.9,434.5,200.8,434.5,200.8z"/>
			<path class="st7" d="M397.9,179.2c1.6-0.3,9.8-0.3,13.7,3.8l0.7-0.2c0,0-1.3-4.4-5.7-5.6C402.1,176,399.7,178.3,397.9,179.2z"/>
			<path class="st7" d="M406,178.7c0,0,1.5-7,16.5-4.7c0,0-7.5-2.6-14.4-0.3c0,0,0.5-7.4-4.4-10.1c-4.9-2.8-18.7-1.5-18.7,10.3
				l0.7,0.2c0,0,6.2-12.3,16-7.8c6.9,3.1,2.9,11.1,2,11.9"/>
			<path class="st7" d="M334.9,166.5c-2.6,2.7-3.3,7.2-1.5,10.3l-0.6,0.4c0,0-4.9-1.1-3.1-7.7C331.6,163,334.9,166.5,334.9,166.5z"
				/>
			<path class="st7" d="M309.4,146.5c-5.3,2.9-12.2,13.3-8.6,15.6l-5.6,3.3l-0.4-1.2C294.8,164.2,298.9,150.2,309.4,146.5z"/>
			<path class="st7" d="M206.2,156c0,0-0.9-5.5-5.4-8.4l0.5-0.6c0,0,8,3.8,8.3,8.7C209.9,160.8,206.2,156,206.2,156z"/>
			<path class="st7" d="M153.6,207.5c1.3,2,5.6,11.3-2.4,17.2c0,0,10.8-3.1,7.1-15.1l-5.9-4.1L153.6,207.5z"/>
			<path class="st7" d="M257.9,143.7c0,0,25.8,0.1,32.7,23.8l-2.8,7.5C287.9,175.1,287,149.4,257.9,143.7z"/>
			<path class="st7" d="M375,436.2c0,0,7.5,2.7,15.9-2l0.8,0.1c0,0-11.1,13.2-22.9,4.4L375,436.2z"/>
			<polygon class="st7" points="398.6,417.5 399.2,419.5 400.6,420.5 398,420.8 397.6,422.8 396,420.4 			"/>
			<path class="st7" d="M275.6,151.4c-5.5-3.4-11.8-4.8-19.9-4.7c-8.1,0.1-13.1,5.3-14.1,7.7l1.6,2.8l-0.3,0.4l-6.5-5l-4.8-0.4
				l-4.8,0.1l2.8-6.1l6.5,4.3c0,0,12.2-12.1,34.2-4.5"/>
			<path class="st7" d="M178.9,382.7l-1.3,5.1l0.2,4.6l1.3,4.6l2.6,2.4l8.6,1.5l0.3,1.1l-7.7,0.3l-3.1,1.6l-2.1,4.1
				c0,0-1.1-6,0.8-7.8c0,0-5.9-4.9-5.2-11.2c0.6-6.4,3-7.7,3-7.7L178.9,382.7z"/>
			<path class="st7" d="M204.5,435.5l3.4-2.6l-1,3.4l0.2,4.2l1.6,3.4l6,7.3l6.5,0.7h7.8l2.9-0.8l-0.3-8l1-0.2l2,4.7l0.8,3.4l3.1-1.5
				l0.3,2l-2.8,2.4l-0.7,2.9v3.4l2.1,4.2c0,0-5.9-4.7-5.5-9.6c0,0-9.1,3.9-19.5-1.8C202,447.6,204.5,435.5,204.5,435.5z"/>
			<path class="st7" d="M193.7,429.9c0,0-0.9-4.3,0.6-5.8l-0.6-1.3l2.8-5.4h0.9l-0.3,6c0,0-3.8,3.3-2.3,8.7L193.7,429.9z"/>
			<path class="st7" d="M194.9,426.2l1.4-0.9l3.4-0.1c0,0,1.6,0.4,1.8,0.4c0.2,0-2.8-2.1-2.8-2.1s-2.9,0-3,0c-0.2,0-1.4,1.8-1.5,2
				C194.1,425.8,194.9,426.2,194.9,426.2z"/>
			<path class="st7" d="M419.6,344.8l1.6,7l0.8,6.9l-0.1,2.8l-1.1,3.5l-1.4,2.4l-1.6,2l-5.4,2.6l-0.9,2.6l2,5.4l0.4,5.8v1.8l2.3-5.1
				c0,0-1-6-2-8.5c-1-2.4-0.8-1.3-0.8-1.3s6.8-0.8,9.8-7.7c3-6.9,1.5-17.7,0.3-21.5C422.3,340,419.6,344.8,419.6,344.8z"/>
		</g>
		<g class="st9">
			<path class="st6" d="M349.4,459.6c11.3,0,20.1-13.5,19.4-20.9c15.4,11,29.3-10.6,29.3-17.9c7,0.4,11-8.8,7-14.6
				c11.3-5.9,13.2-22,9.2-32.6c5.9-1.5,11.7-6.9,11.7-17.6c0-10.6-5.5-21.2-5.5-26.7c5.9-7.3,4.8-34.8,4.8-34.8
				c2.6-2.2,3.3-20.9,3.5-23.8c0.3-2.9,2.5-2.3,2.5-2.3c0.6,17.1,20.6,9.6,22.1,5.2c16.8-5.1,11.3-22.3,5.9-28.9
				c4.8-3.3,5.5-9.5-1.1-13.5c6.6-11-3.7-26.3-17.9-27.7c2.8-25.2-21.5-34.3-32.1-29.7c1.3-11.8-11.9-15.2-19.4-8.4
				c-2.8-20.1-23-22.5-36.3-16.2c19.9-2.7,26,15.1,18.7,25.6c0,0,6.5,11.1-1.7,20.8c0,0,11.2,20-12.7,22.6c0,0,14.7,25,5.6,40.2
				c-9.1,15.1,6.3,40.5-29.7,57.2c0,0,9.8,34.4-31.2,36.1c0,0,1.8,13.3-2.2,16.8c0,0,11.8,15.2,0.5,40.8c0,0,2.5,12.7-2.2,17
				c0,0,5,9.8,6.5,20.8l4,6.2C321.5,471.3,346.4,465.8,349.4,459.6z"/>
			<path class="st6" d="M169.1,254.2c-9.6-10.2-10.3-20.9-10.3-20.9c-22,1.3-24.1-21.8-24.1-21.8l0-0.1c-6,11.4-2.6,24.8,6.2,33.4
				c-7.8,5.9-11.4,19.9,1.5,28.5c-4.5,9.4,18.2,16.8,21.5,1.5c0,0,0-9.1,0.7-11.7c0-0.1,0.1-0.3,0.1-0.4c-0.2-1.7-0.3-2.7-0.3-2.7
				L169.1,254.2z"/>
		</g>
		<path class="st10" d="M298,238.2c93.5-1.1,133.5,20.5,133,26.5c-1,12.6-2.5,29.6-2.5,29.6s-2.5,31.4-2.6,33.2
			c-0.1,1.7,0.6,1.1,0.6,0.3c0-0.8,5.5-61.8,5.7-63.8c0.2-2-18.7-26.9-134-26.9C295,237.1,296.5,238.2,298,238.2z"/>
		<g>
			<g>
				<g>
					<path d="M189,468.6c4.6,0.3,7.1,0.5,12.4,0.8c4.8,0.3,8.7,2,12.2,6.6c3.5,4.7,4.7,10.3,5.1,21.1c0.3,7.9,0,13.3-2,18.1
						c-2.3,5.7-6.2,8.9-12.3,8c-1.7-0.2-2.5-0.4-4.1-0.6c0.7,12,1.4,24,2,36c-3-0.6-4.4-0.9-7.1-1.6
						C193.2,527.5,191.2,498,189,468.6z M199.6,510.4c1.5,0.2,2.3,0.3,3.9,0.5c6.8,0.8,6.8-5.5,6.4-14.4c-0.4-8.4-0.9-15.1-7.7-15.6
						c-1.8-0.1-2.7-0.2-4.4-0.3C198.4,490.4,199,500.4,199.6,510.4z"/>
					<path d="M222.9,470.3c4,0.1,6.1,0.2,10.3,0.3c0.8,30.9,1.5,61.8,2.2,92.7c-3.9-0.4-5.9-0.6-9.6-1.1
						C224.9,531.6,224,501,222.9,470.3z"/>
					<path d="M240.6,470.9c4.1,0.1,6.3,0.2,10.5,0.2c6,18.8,11.6,37.8,17.2,56.7c0.1,0,0.1,0,0.2,0c0-18.8-0.1-37.6-0.1-56.5
						c4.6,0.1,6.9,0.1,11.5,0.1c-0.1,31.7-0.3,63.3-0.3,95c-4.2-0.2-6.2-0.3-10.3-0.5c-5.6-19.4-11.2-38.8-17.1-58.2
						c-0.1,0-0.1,0-0.2,0c0.2,19,0.4,38.1,0.7,57.1c-4.2-0.3-6.3-0.5-10.3-0.9C241.7,533,241.2,501.9,240.6,470.9z"/>
					<path d="M295,484.2c-5.4,0-8-0.1-13.4-0.1c0-5,0-7.5,0.1-12.5c12.8,0.1,25.7,0.1,38.5-0.1c-0.1,5.1-0.2,7.6-0.3,12.7
						c-5.3,0-8,0-13.3,0c-0.5,27.6-0.9,55.3-1.3,82.9c-4.4,0-6.7-0.1-11.1-0.2C294.4,539.3,294.7,511.8,295,484.2z"/>
				</g>
				<g>
					<path d="M338.4,493.6c0.1-11.2,7.4-23.2,19-23.7c11.5-0.5,16.9,12.5,15.8,22.6c-0.9,16.7-1.8,33.4-2.6,50.2
						c-0.2,10.3-6.2,23.4-17.3,24.1c-11.2,0.7-17.3-12.5-16.6-22.6C337.3,527.4,337.8,510.5,338.4,493.6z M347.3,544
						c-0.2,6.6,2.9,9.5,6.6,9.3c3.7-0.2,6.8-3.4,7.1-10c0.8-16.8,1.5-33.6,2.3-50.4c0.3-6.6-2.7-9.5-6.5-9.4
						c-3.8,0.1-7.3,3.3-7.6,9.9C348.6,510.3,347.9,527.1,347.3,544z"/>
					<path d="M380.6,469.8c11.3-0.6,16.4-0.9,25.3-1.7c-0.4,5.1-0.6,7.6-1.1,12.7c-5.8,0.6-9,0.8-15.9,1.3
						c-0.6,9.6-1.3,19.2-1.9,28.7c5.9-0.5,8.6-0.8,13.6-1.4c-0.4,5-0.6,7.5-1,12.6c-4.9,0.7-7.6,1-13.5,1.5
						c-0.9,13.3-1.7,26.5-2.6,39.8c-3.2,0.4-4.9,0.6-8.4,1C376.9,532.8,378.7,501.3,380.6,469.8z"/>
				</g>
				<g>
					<path d="M219,595.2c-3.1-0.5-4.7-0.8-7.6-1.4c-0.1-1.1-0.1-1.7-0.1-2.8c-0.3-5.7-2-10.6-5.6-11.4c-3.8-0.8-4.2,4.4-3.9,10
						c0.4,6.6,0.8,8.9,4.4,12.3c2.1,2,3.2,3,5.5,4.9c6.5,5.4,8.3,12.5,8.9,24.7c0.7,14-2.5,23.5-10.5,21
						c-6.1-1.9-10.3-11.6-11.2-22.5c-0.1-1.7-0.2-2.6-0.4-4.3c2.1,0.8,3.2,1.2,5.6,2c0.1,1.5,0.2,2.2,0.3,3.7
						c0.3,4.3,1.7,8.7,4.9,9.7c4.3,1.3,4.5-3.4,4.1-10.9c-0.5-8.9-1.3-10.4-4.7-13.6c-2-1.9-3-2.9-4.9-4.8c-5.7-5.8-7.2-13-8-23.6
						c-0.9-12.8,1.4-22.3,9.5-20.6c7.1,1.4,13,12.2,13.4,21.8C218.9,591.5,218.9,592.8,219,595.2z"/>
					<path d="M251.8,641.1c0.2,10.4-6.3,18.7-13.4,17.4c-9.6-1.8-14.1-12-14.1-21.6c-0.7-15.6-1.3-31.2-1.9-46.8
						c-0.4-11.3,4.9-19.4,13.4-18.2c10.1,1.4,15.3,12.9,15.3,22.4c0,2,0,2.9,0.1,4.9c-3.8-0.3-5.6-0.5-9.2-0.9
						c0-1.7-0.1-2.5-0.1-4.2c-0.1-4.9-2.4-9.3-5.8-9.7c-4.5-0.5-5.3,3.6-5.1,9.5c0.5,14.5,0.9,29.1,1.4,43.6
						c0.2,4.8,1.6,8.7,5.4,9.3c2.3,0.3,5.3-1.1,5.2-7.7c0-1.6-0.1-2.5-0.1-4.1c3.5,0.4,5.3,0.6,9,1C251.7,638,251.7,639,251.8,641.1
						z"/>
					<path d="M256.4,574.4c3.9,0.3,5.9,0.4,9.8,0.6c0.1,28.6,0.4,57.2,0.7,85.7c-3.8-0.3-5.6-0.4-9.3-0.7
						C257.1,631.5,256.7,603,256.4,574.4z"/>
					<path d="M273.5,575.4c10.1,0.5,20.2,0.8,30.4,0.9c-0.1,4.8-0.1,7.1-0.2,11.9c-8-0.1-12.1-0.2-20.1-0.4
						c0,10.3-0.1,15.5-0.1,25.6c6.9,0.2,10.4,0.3,17.3,0.4c-0.1,4.7-0.1,7-0.1,11.6c-6.9,0-10.3-0.1-17.2-0.3c0,10.1,0,15,0,24.8
						c7.7,0.2,11.7,0.3,19.5,0.2c-0.1,4.8-0.1,7.1-0.1,11.8c-9.6,0.1-19.3-0.1-29-0.6C273.6,632.6,273.6,604,273.5,575.4z"/>
					<path d="M307.6,576.4c3.9,0,5.9,0,9.7,0c4.6,17.2,9.1,34.4,13.6,51.6c0.1,0,0.1,0,0.2,0c0.5-17.3,1-34.6,1.5-51.8
						c3.9-0.1,5.9-0.2,9.7-0.4c-1,28.1-1.9,56.1-2.9,84.2c-3.4,0.3-5.1,0.5-8.7,0.7c-4.5-16.5-9-33-13.5-49.6c-0.1,0-0.1,0-0.2,0
						c-0.3,16.8-0.7,33.6-1,50.4c-3.9,0.1-5.8,0.2-9.7,0.3C306.7,633.3,307.1,604.8,307.6,576.4z"/>
					<path d="M372.3,637.3c-0.6,9.9-6.2,19.5-13.5,20.7c-6.3,1.1-13.9-2.1-13.3-17.1c0.6-15.4,1.2-30.9,1.7-46.3
						c0.2-9.3,5.6-19.9,15.5-20.9c7.8-0.8,12.9,7.2,12.3,18.8c-0.1,1.9-0.2,2.8-0.3,4.7c-3.1,0.5-4.7,0.7-8,1.1
						c0.1-1.6,0.1-2.4,0.2-4c0.2-4.7-1.5-8.6-4.8-8.3c-4.3,0.4-5.6,4.7-5.9,10.4c-0.6,14.2-1.2,28.4-1.9,42.7
						c-0.2,4.7,1,8.1,4.7,7.6c2.3-0.4,5.2-2.6,5.5-9c0.1-1.6,0.1-2.4,0.2-4c3.2-0.5,4.8-0.8,7.8-1.4
						C372.4,634.3,372.4,635.3,372.3,637.3z"/>
					<path d="M380.5,572.5c9.1-1.3,13.2-2,19.9-3.8c-0.4,4.4-0.6,6.6-1,11c-4.4,1.3-6.9,1.9-12.3,2.9c-0.7,9.8-1,14.6-1.7,24.1
						c4.6-1.1,6.8-1.7,10.6-3c-0.4,4.3-0.6,6.4-1,10.7c-3.7,1.4-5.8,2-10.4,3.2c-0.7,9.4-1,14.1-1.7,23.2c5.1-1.5,7.4-2.4,11.3-4.3
						c-0.4,4.4-0.6,6.5-1.1,10.8c-5.8,3-9.5,4.3-17.8,6.5C377.1,626.8,378.8,599.6,380.5,572.5z"/>
				</g>
			</g>
		</g>
		<path class="st11" d="M166.4,294.7c0,0,2.5,39.9,2.5,42.2c0,0-3.6,8.5-2,22c0.7,5.6,1.7,12.8,5.2,19.5c0,0,21.1,278.2,21.3,281.9
			c0.2,3.7,28.7,14.2,103.4,14.2c74.8,0,101.8-8.7,102.5-14.2c0.7-5.5,21.6-281.2,21.6-281.2s5.3-8.7,6.9-22.9
			c1.6-14.2-5-19.7-5-19.7s4.4-40.1,4.4-42.4c0-2.3-23.2-19-130.7-19S166.2,289.6,166.4,294.7z"/>
		<path class="st12" d="M266.3,238.7c-1.6,0-3-0.1-4.3-1.2c-1.2-1-1.2-1.5-3.2-1.1c-2.8,0.7-5.5,2.3-8.1,3.2
			c-5.9,2-12.6,0.6-18.8,2.1c-2.7,0.6-6.7,1.2-9.1-0.5c-2.6-1.8-4.3-1-4.6,0.7c-0.6,0.2-1.4,0.3-1.8,0.7c-2.6,2.3,3.3,4.6,5.1,5
			c6.9,1.6,14.9,0.6,22,0.6c2.5,0,5.1,0.2,7.5,0c0.5,0,0.9,0,1.3,0c0.6-0.1,0.9-0.5,1.1-1c4.6-1.2,10.3-1.4,15.1-1.5
			c2.5-0.1,5.2-0.3,7.7,0.2"/>
		<path class="st12" d="M324.8,238.3c85.6,3.1,106.3,22.6,106.1,26.4c-0.2,5.2-2.1,25.9-2.4,30c-0.2-2.8-23.7-19.9-129.9-19.9
			c-118,0-131.8,16.9-132.2,18.5c0,0-1.2-26.6-1.5-32.4c-0.3-5.9,22.9-22.9,136-22.9c5.5,0,11,0.1,16.5,0.2c2.5,0.1,4.9,0.3,7.3,0.4
			c2.3,0.1,4-0.2,6.3-0.5c1.3-0.2,7.7-0.2,8.9-0.2c5.1,0.3,5.1-0.1,10.2,0.1c4.6,0.1,16.1,4,20.2,1c2.3-1.7,1.9-0.1,4.6,2.6
			c1.6,1.5,2.3,2.3,3.3,3.9c-0.5,0.7-1.2,1.1-2.2,1.2c-4.1,1.7-8.5,3-12.8,4.1c-3.3,0.9-7.1,2.3-10.6,2.4c-1.6-0.1-3.1-0.4-4.6-0.8
			c-4.5-1-8.9-1.9-13.5-2.5c-3.6-0.5-7.3-0.8-10.9-1.5"/>
		<path class="st13" d="M161.6,259.5c0,3.6,1.9,37.4,1.9,37.4s0.8-2.4,3-4.1c0,0-1.7-31.8-1.7-32.8c0-1,10.4-22,135.7-22
			c107.5,0,130.9,23.8,130.4,25.9c-0.4,2.2-2.4,30.7-2.4,30.7s1.4,0.8,1.9,2.6c0,0,2.8-31.4,3.1-34.9c0.4-3.4-19-28.4-133.5-28.4
			C185.6,234,161.5,252,161.6,259.5z"/>
		<path class="st12" d="M259.4,275.8c3.8,0,7.6,0,11.4,0c2,0,4.6-0.5,6.5,0c3,0.7,6.6,3.4,9.4,4.9c2.2,1.2,3.1,2.1,4.3,4.1
			c1,1.6,1.6,3.5,2.7,4.9c2.6-1.6,4.5-4,7.3-5.5c5.4-2.8,10.2-2.9,16.4-2.9c2.6,0,6.7-0.8,9.2,0c2.3,0.8,3.2,3.6,5.9,4.1
			c4.7,1,11.6,0.5,15.8-1.8c3.1-1.7,5.4-3.2,8.8-3.2c9,0,18,0.7,27,0.7c5.1,0,11.2-1.5,16,0.2c2.2,0.8,3.9,2.3,6.5,2.1
			c2-10.2-7.4-13.4-15.7-16.4c-12.5-4.4-25.6-7.5-38.3-11c-4-1.1-6.1-1-10.4-0.9c-13.7,0.6-27.8,0.7-41.4-0.8
			c-4.3-0.5-7.8-1.9-11.7-0.2c-9.9,4.4-19.8,7-30.7,6.8"/>
		<path class="st14" d="M363.5,280.8c0,0,0.9-33.8,0.9-39.1c44.3,4.4,67.1,17.8,66.6,23c-0.6,5.2-2.5,29.6-2.5,29.6
			s-4.4-6.8-37.7-13.2C390.7,281.2,385.9,281.7,363.5,280.8z"/>
		<path class="st14" d="M336.8,286.1v-47l9.8,0.6l-0.5,45C346,284.8,341.7,286.7,336.8,286.1z"/>
		<path class="st15" d="M293.6,290.8C293.6,290.8,293.7,290.8,293.6,290.8c-0.3-0.1-0.1,0.8-0.1,1c0,0.4,0.2,0.9,0.6,0.6
			c0.4-0.2,0.4-0.6,0.4-1.1C294.4,290.9,294,290.8,293.6,290.8"/>
		<g>
			<path class="st16" d="M467.2,285.3c0,0-9-1.5-27.8-5.5c0,0-15.8-2.4-37.5-4.6c0,0-14.1-0.6-29.4-2c0,0-12.8,0.4-29.7,1.5
				c0,0-12.9,2.8-26.3,6c0,0-8.4,2.6-14.8,3.1c0,0-4.1,0.2-9.5-0.6c0,0-3.6-0.2-9.4-2.9c0,0-12-4.5-30.7-10.7c0,0-24.7-7.4-68.9-8.7
				c-15.5-0.5-35.4,2.6-54.2,3.2l-1,15.4l-0.4,5.4c0,0,2.8,2.5,7.6,6.8c0,0,2.2,9.8,3.6,23.1c0,0,3.6,21.2,9.5,35.2
				c0,0,5.8,9.5,21.6,16.9c0,0,18.8,4.9,37,5.5c0,0,13.3-1.7,26.7-4.4c0,0,9.3-3.5,19.4-11.4c0,0,10.2-9.3,19.5-26
				c0,0,3-5.8,6.4-13.9c0,0,2.3-5.8,4.7-11.1c0,0,2.3-2.8,5.3-4.8c0,0,3.8-0.7,8.1-0.4c0,0,3.8,1.2,7.4,2.7c0,0,2.8,6.2,7.8,19.3
				c0,0,4,14.4,9.6,26.6c0,0,4.8,9,15.1,19.2c0,0,11.8,8.1,27.8,12.3c0,0,18.3,4.9,32.9,4.5c0,0,6.8,0,13.3-1.4c0,0,6-1,12-2.8
				c0,0,6.6-3.2,10.1-7.5c0,0,6.4-7.8,11.9-21c0,0,5.7-16.9,9-31.7c0,0,2-3.5,4.1-7.1c0,0,3.9-3.8,7.8-8.5
				C465.9,304.8,468.4,294,467.2,285.3z M267.8,310.1c-3.9,12.7-8.6,23.5-8.6,23.5c-4.5,7.9-9.8,14.5-9.8,14.5
				c-5.4,6-11.6,10.1-11.6,10.1c-10.7,4.7-22.6,6.7-22.6,6.7c-11.1,0.8-19.8,0.2-19.8,0.2c-12.6-1-22.3-3.7-22.3-3.7
				c-8.8-4-12.7-8.7-12.7-8.7c-5.7-10.4-7.5-18.1-7.5-18.1c-2.3-9.5-3.3-16.8-3.3-16.8c-0.4-7.2-0.2-12.3-0.2-12.3
				c0.1-6,0.8-11.6,0.8-11.6c1.2-4.9,2.9-9.5,2.9-9.5c2.7-4.1,5.9-6.9,5.9-6.9c5.5-2.7,11.9-4.3,11.9-4.3c8.3-1.2,14.5-1.6,14.5-1.6
				c9.7,0,16.9,0.4,16.9,0.4c3.9,0.3,7,0.5,7,0.5c17,1.1,28.1,3.5,28.1,3.5c14.4,3.9,20.5,6.5,20.5,6.5c6.2,4.2,8.9,7.6,8.9,7.6
				c1.1,3.8,2,8.4,2,8.4C268.3,305.2,267.8,310.1,267.8,310.1z M441.4,325.2c0,0-0.5,5.1-1.8,12.2c0,0-2,7-5.5,16.2
				c0,0-2.8,7.3-9.8,16.9c0,0-4.5,4.1-13.8,6.9c0,0-10,1.4-22.6,0.7c0,0-8.7-0.6-19.6-2.9c0,0-11.5-3.5-21.5-9.6
				c0,0-5.6-5-10.1-11.6c0,0-4.5-7.3-7.8-15.7c0,0-3.2-11.3-5.4-24.4c0,0,0.2-4.9,0.8-11.7c0,0,1.5-4.5,3.1-8.1c0,0,3.1-3.2,9.8-6.5
				c0,0,6.4-1.5,21.2-3.4c0,0,11.3-0.8,28.3,0.3c0,0,3.1,0.2,7,0.5c0,0,7.1,0.5,16.8,1.9c0,0,6,1.5,14.1,3.8c0,0,6.2,2.3,11.2,5.8
				c0,0,2.8,3.2,4.9,7.6c0,0,1,4.8,1.6,9.8C442.2,313.6,442.1,319.3,441.4,325.2z"/>
		</g>
	</g>
</g>
</svg>
